<svg width="24" height="25" viewBox="0 0 24 25" fill="none" xmlns="http://www.w3.org/2000/svg">
<path d="M19 4.78906H5C4.20435 4.78906 3.44129 5.10513 2.87868 5.66774C2.31607 6.23035 2 6.99341 2 7.78906V17.7891C2 18.5847 2.31607 19.3478 2.87868 19.9104C3.44129 20.473 4.20435 20.7891 5 20.7891H19C19.7956 20.7891 20.5587 20.473 21.1213 19.9104C21.6839 19.3478 22 18.5847 22 17.7891V7.78906C22 6.99341 21.6839 6.23035 21.1213 5.66774C20.5587 5.10513 19.7956 4.78906 19 4.78906ZM19 6.78906L12.5 11.2591C12.348 11.3468 12.1755 11.393 12 11.393C11.8245 11.393 11.652 11.3468 11.5 11.2591L5 6.78906H19Z" fill="white"/>
</svg>
