<svg width="60" height="60" viewBox="0 0 60 60" fill="none" xmlns="http://www.w3.org/2000/svg">
<g clip-path="url(#clip0_42_534)">
<path opacity="0.7" d="M34.2251 1.88363C40.3522 -1.31402 49.3572 0.336377 54.2052 5.41135C58.0476 9.43935 59.9971 14.1791 59.4916 19.744C59.1569 23.5663 57.6067 27.1809 55.0683 30.058C52.5298 32.9352 49.1366 34.9238 45.3859 35.7323C42.017 36.4533 38.513 36.2084 35.2772 35.0257C34.3024 34.6853 34.1684 34.3758 34.8956 33.5971C38.4553 29.8363 40.566 24.935 40.8525 19.7647C41.2915 14.2542 39.6727 8.77665 36.3087 4.39018C35.6692 3.56498 34.9471 2.75009 34.2251 1.88363Z" fill="#333333"/>
<path opacity="0.7" d="M57.8671 34.3707C59.5632 38.0649 59.9519 42.2263 58.9694 46.1707C57.9869 50.1151 55.6916 53.6079 52.4607 56.0748C49.2299 58.5417 45.2559 59.836 41.192 59.7448C37.1281 59.6536 33.2161 58.1825 30.0991 55.5732C23.8328 50.2558 21.7285 41.1322 25.2923 34.381C29.8309 38.7907 35.2566 41.1219 41.5797 41.1219C47.9028 41.1219 53.3233 38.7804 57.8671 34.3707Z" fill="#333333"/>
<path opacity="0.7" d="M25.411 58.1261C19.6655 60.4676 14.1573 60.3644 8.907 57.239C1.68651 52.9325 -1.54207 45.1601 0.655021 37.068C2.53235 30.2034 7.1741 25.9072 14.1419 24.231C17.6325 23.4311 21.2843 23.7191 24.6064 25.0562C25.3078 25.3193 25.3439 25.5359 24.8385 26.0877C20.1968 31.0389 18.1853 36.9752 18.6753 43.7006C19.0124 48.5624 20.9658 53.1718 24.2248 56.7954L25.411 58.1261Z" fill="#333333"/>
<path opacity="0.7" d="M18.0356 0.243556C20.9252 0.24787 23.7711 0.948375 26.3325 2.28575C28.8939 3.62312 31.0953 5.55798 32.7504 7.92652C34.4055 10.2951 35.4655 13.0275 35.8407 15.8926C36.2159 18.7577 35.8952 21.6709 34.9058 24.3858C34.5035 25.5256 34.1683 25.5256 33.3328 24.7571C29.1497 20.9477 23.6999 18.8291 18.0422 18.8129C12.3845 18.7967 6.92274 20.884 2.71789 24.6694C1.66061 25.6339 1.65029 25.6287 1.1397 24.2775C-2.71295 14.1224 3.86801 2.52832 14.5904 0.527212C15.7287 0.33507 16.8813 0.24018 18.0356 0.243556Z" fill="#333333"/>
</g>
<defs>
<clipPath id="clip0_42_534">
<rect width="59.569" height="59.502" fill="white" transform="translate(0 0.243591)"/>
</clipPath>
</defs>
</svg>
