<svg width="60" height="61" viewBox="0 0 60 61" fill="none" xmlns="http://www.w3.org/2000/svg">
<g id="Logo vetor 1" clip-path="url(#clip0_42_558)">
<g id="BGYU0T.tif">
<path id="Vector" opacity="0.7" d="M34.2251 2.38357C40.3522 -0.814079 49.3572 0.836316 54.2052 5.91129C58.0476 9.93929 59.9971 14.679 59.4916 20.244C59.1569 24.0662 57.6067 27.6808 55.0683 30.558C52.5298 33.4352 49.1366 35.4237 45.3859 36.2322C42.017 36.9532 38.513 36.7083 35.2772 35.5256C34.3024 35.1852 34.1684 34.8758 34.8956 34.097C38.4553 30.3362 40.566 25.435 40.8525 20.2646C41.2915 14.7542 39.6727 9.27658 36.3087 4.89012C35.6692 4.06492 34.9471 3.25003 34.2251 2.38357Z" fill="white"/>
<path id="Vector_2" opacity="0.7" d="M57.8671 34.8706C59.5632 38.5648 59.9519 42.7261 58.9694 46.6706C57.9869 50.615 55.6916 54.1077 52.4607 56.5746C49.2299 59.0416 45.2559 60.3358 41.192 60.2447C37.1281 60.1535 33.2161 58.6824 30.0991 56.073C23.8328 50.7557 21.7285 41.6321 25.2923 34.8809C29.8309 39.2906 35.2566 41.6218 41.5797 41.6218C47.9028 41.6218 53.3233 39.2803 57.8671 34.8706Z" fill="white"/>
<path id="Vector_3" opacity="0.7" d="M25.411 58.6257C19.6655 60.9672 14.1573 60.8641 8.907 57.7386C1.68651 53.4321 -1.54207 45.6598 0.655021 37.5677C2.53235 30.703 7.1741 26.4069 14.1419 24.7307C17.6325 23.9308 21.2843 24.2187 24.6064 25.5559C25.3078 25.8189 25.3439 26.0355 24.8385 26.5874C20.1968 31.5386 18.1853 37.4748 18.6753 44.2002C19.0124 49.062 20.9658 53.6715 24.2248 57.2951L25.411 58.6257Z" fill="white"/>
<path id="Vector_4" opacity="0.7" d="M18.0356 0.743251C20.9252 0.747565 23.7711 1.44807 26.3325 2.78544C28.8939 4.12281 31.0953 6.05767 32.7504 8.42621C34.4055 10.7948 35.4655 13.5272 35.8407 16.3923C36.2159 19.2574 35.8952 22.1706 34.9058 24.8855C34.5035 26.0253 34.1683 26.0253 33.3328 25.2568C29.1497 21.4474 23.6999 19.3288 18.0422 19.3126C12.3845 19.2964 6.92274 21.3837 2.71789 25.1691C1.66061 26.1336 1.65029 26.1284 1.1397 24.7772C-2.71295 14.6221 3.86801 3.02801 14.5904 1.02691C15.7287 0.834765 16.8813 0.739875 18.0356 0.743251Z" fill="white"/>
</g>
</g>
<defs>
<clipPath id="clip0_42_558">
<rect width="59.569" height="59.502" fill="white" transform="translate(0 0.743164)"/>
</clipPath>
</defs>
</svg>
