<svg width="24" height="25" viewBox="0 0 24 25" fill="none" xmlns="http://www.w3.org/2000/svg">
<g id="Layer 2">
<g id="phone">
<path id="Vector" d="M17.4 22.7892C13.3173 22.7839 9.40331 21.1597 6.5164 18.2728C3.62949 15.3859 2.00529 11.4719 2 7.38918C2 6.16918 2.48464 4.99915 3.34731 4.13649C4.20998 3.27382 5.38 2.78918 6.6 2.78918C6.85834 2.78721 7.11625 2.81066 7.37 2.85918C7.61531 2.89548 7.85647 2.95577 8.09 3.03918C8.25425 3.09681 8.40061 3.19631 8.51461 3.32785C8.62861 3.45939 8.7063 3.61841 8.74 3.78918L10.11 9.78918C10.1469 9.95204 10.1425 10.1216 10.0971 10.2823C10.0516 10.443 9.96671 10.5897 9.85 10.7092C9.72 10.8492 9.71 10.8592 8.48 11.4992C9.46499 13.66 11.1932 15.3953 13.35 16.3892C14 15.1492 14.01 15.1392 14.15 15.0092C14.2694 14.8925 14.4162 14.8075 14.5769 14.7621C14.7376 14.7167 14.9071 14.7122 15.07 14.7492L21.07 16.1192C21.2353 16.1575 21.3881 16.2373 21.5141 16.351C21.64 16.4647 21.735 16.6086 21.79 16.7692C21.8744 17.0065 21.938 17.2508 21.98 17.4992C22.0202 17.7505 22.0403 18.0046 22.04 18.2592C22.0216 19.474 21.5233 20.6321 20.654 21.4808C19.7847 22.3295 18.6149 22.7999 17.4 22.7892Z" fill="white"/>
</g>
</g>
</svg>
