<svg width="64" height="64" viewBox="0 0 64 64" fill="none" xmlns="http://www.w3.org/2000/svg">
<rect width="64" height="64" rx="10.449" fill="#E8E8E8"/>
<path d="M50.1837 39.4591C50.1837 41.6887 48.4137 43.9575 44.9863 45.7283C41.6098 47.4729 36.8757 48.5816 31.5918 48.5816C26.3079 48.5816 21.5738 47.4729 18.1973 45.7283C14.77 43.9575 13 41.6887 13 39.4591C13 37.2295 14.77 34.9607 18.1973 33.1899C21.5738 31.4454 26.3079 30.3367 31.5918 30.3367C36.8757 30.3367 41.6098 31.4454 44.9863 33.1899C48.4137 34.9607 50.1837 37.2295 50.1837 39.4591Z" stroke="black" stroke-width="2"/>
<path d="M50.1837 32.5408C50.1837 34.663 48.4373 36.8536 44.9981 38.5731C41.6188 40.2628 36.8804 41.3367 31.5918 41.3367C26.3033 41.3367 21.5648 40.2628 18.1855 38.5731C14.7464 36.8536 13 34.663 13 32.5408C13 30.4186 14.7464 28.228 18.1855 26.5085C21.5648 24.8188 26.3033 23.7449 31.5918 23.7449C36.8804 23.7449 41.6188 24.8188 44.9981 26.5085C48.4373 28.228 50.1837 30.4186 50.1837 32.5408Z" stroke="black" stroke-width="2"/>
<path d="M50.1837 25.6224C50.1837 27.8521 48.4137 30.1209 44.9863 31.8917C41.6098 33.6362 36.8757 34.7449 31.5918 34.7449C26.3079 34.7449 21.5738 33.6362 18.1973 31.8917C14.77 30.1209 13 27.8521 13 25.6224C13 23.3928 14.77 21.124 18.1973 19.3532C21.5738 17.6087 26.3079 16.5 31.5918 16.5C36.8757 16.5 41.6098 17.6087 44.9863 19.3532C48.4137 21.124 50.1837 23.3928 50.1837 25.6224Z" stroke="black" stroke-width="2"/>
</svg>
